<svg xmlns="http://www.w3.org/2000/svg" viewBox="0 0 52.99 44.47" style="enable-background:new">
    <defs>
        <filter style="color-interpolation-filters:sRGB" id="a">
            <feFlood flood-opacity="1" flood-color="#BFD7EA" result="flood"/>
            <feComposite in="flood" in2="SourceGraphic" operator="out" result="composite1"/>
            <feGaussianBlur in="composite1" stdDeviation="4.2" result="blur"/>
            <feOffset dx="1" dy="1" result="offset"/>
            <feComposite in="offset" in2="SourceGraphic" operator="in" result="composite2"/>
        </filter>
        <filter style="color-interpolation-filters:sRGB" id="b">
            <feFlood flood-opacity="1" flood-color="#C81D25" result="flood"/>
            <feComposite in="flood" in2="SourceGraphic" operator="out" result="composite1"/>
            <feGaussianBlur in="composite1" stdDeviation="1" result="blur"/>
            <feOffset result="offset"/>
            <feComposite in="offset" in2="SourceGraphic" operator="in" result="composite2"/>
        </filter>
        <filter style="color-interpolation-filters:sRGB" id="c" x="-.84" width="2.69" y="-.84" height="2.69">
            <feGaussianBlur stdDeviation="2.3"/>
        </filter>
    </defs>
    <g transform="translate(-78.46 -126.27)">
        <path transform="matrix(.63406 -.05696 .05696 .63406 44.97 103.97)" d="M111.76 80.58c-.34 3.31-11.15 18.27-14.19 19.63-3.04 1.36-21.4-.52-24.1-2.47-2.7-1.95-10.24-18.8-9.9-22.1.34-3.32 11.15-18.28 14.19-19.64 3.03-1.36 21.4.52 24.1 2.47 2.7 1.95 10.24 18.8 9.9 22.11z" style="opacity:.7;fill:#bfd7ea;fill-opacity:1;fill-rule:nonzero;stroke:none;stroke-width:1.04431045;stroke-linecap:round;stroke-linejoin:round;stroke-miterlimit:4;stroke-dasharray:none;stroke-opacity:.55825243;paint-order:markers stroke fill"/>
        <path style="opacity:1;fill:#0b3954;fill-opacity:1;fill-rule:nonzero;stroke:none;stroke-width:1.04431045;stroke-linecap:round;stroke-linejoin:round;stroke-miterlimit:4;stroke-dasharray:none;stroke-opacity:.55825243;paint-order:markers stroke fill" d="M111.76 80.58c-.34 3.31-11.15 18.27-14.19 19.63-3.04 1.36-21.4-.52-24.1-2.47-2.7-1.95-10.24-18.8-9.9-22.1.34-3.32 11.15-18.28 14.19-19.64 3.03-1.36 21.4.52 24.1 2.47 2.7 1.95 10.24 18.8 9.9 22.11z" transform="matrix(.99598 -.08947 .08947 .99599 10.7 78.55)"/>
        <path transform="rotate(-5.13 967.09 -184.77) scale(.89653)" d="M111.76 80.58c-.34 3.31-11.15 18.27-14.19 19.63-3.04 1.36-21.4-.52-24.1-2.47-2.7-1.95-10.24-18.8-9.9-22.1.34-3.32 11.15-18.28 14.19-19.64 3.03-1.36 21.4.52 24.1 2.47 2.7 1.95 10.24 18.8 9.9 22.11z" style="opacity:.7;fill:#087e8b;fill-opacity:.94117647;fill-rule:nonzero;stroke:none;stroke-width:1.04431045;stroke-linecap:round;stroke-linejoin:round;stroke-miterlimit:4;stroke-dasharray:none;stroke-opacity:.55825243;paint-order:markers stroke fill"/>
        <path style="opacity:.7;fill:#087e8b;fill-opacity:.94117647;fill-rule:nonzero;stroke:none;stroke-width:1.04431045;stroke-linecap:round;stroke-linejoin:round;stroke-miterlimit:4;stroke-dasharray:none;stroke-opacity:.55825243;paint-order:markers stroke fill;filter:url(#a)" d="M111.76 80.58c-.34 3.31-11.15 18.27-14.19 19.63-3.04 1.36-21.4-.52-24.1-2.47-2.7-1.95-10.24-18.8-9.9-22.1.34-3.32 11.15-18.28 14.19-19.64 3.03-1.36 21.4.52 24.1 2.47 2.7 1.95 10.24 18.8 9.9 22.11z" transform="rotate(-5.13 967.09 -184.77) scale(.89653)"/>
        <path style="color:#000;font-style:normal;font-variant:normal;font-weight:400;font-stretch:normal;font-size:medium;line-height:normal;font-family:sans-serif;font-variant-ligatures:normal;font-variant-position:normal;font-variant-caps:normal;font-variant-numeric:normal;font-variant-alternates:normal;font-feature-settings:normal;text-indent:0;text-align:start;text-decoration:none;text-decoration-line:none;text-decoration-style:solid;text-decoration-color:#000;letter-spacing:normal;word-spacing:normal;text-transform:none;writing-mode:lr-tb;direction:ltr;text-orientation:mixed;dominant-baseline:auto;baseline-shift:baseline;text-anchor:start;white-space:normal;shape-padding:0;clip-rule:nonzero;display:inline;overflow:visible;visibility:visible;opacity:1;isolation:auto;mix-blend-mode:normal;color-interpolation:sRGB;color-interpolation-filters:linearRGB;solid-color:#000;solid-opacity:1;vector-effect:none;fill:#ff5a5f;fill-opacity:1;fill-rule:nonzero;stroke:none;stroke-width:1.46275997;stroke-linecap:butt;stroke-linejoin:round;stroke-miterlimit:4;stroke-dasharray:none;stroke-dashoffset:0;stroke-opacity:1;color-rendering:auto;image-rendering:auto;shape-rendering:auto;text-rendering:auto;enable-background:accumulate" d="m116.56 140.46-22.92 13.69-2.85 1.7a.73.73 0 0 0 .75 1.25l2.84-1.69 22.93-13.7 2.07-2.08z" transform="translate(-55.14 -78.47) scale(1.52605)"/>
        <path style="color:#000;font-style:normal;font-variant:normal;font-weight:400;font-stretch:normal;font-size:medium;line-height:normal;font-family:sans-serif;font-variant-ligatures:normal;font-variant-position:normal;font-variant-caps:normal;font-variant-numeric:normal;font-variant-alternates:normal;font-feature-settings:normal;text-indent:0;text-align:start;text-decoration:none;text-decoration-line:none;text-decoration-style:solid;text-decoration-color:#000;letter-spacing:normal;word-spacing:normal;text-transform:none;writing-mode:lr-tb;direction:ltr;text-orientation:mixed;dominant-baseline:auto;baseline-shift:baseline;text-anchor:start;white-space:normal;shape-padding:0;clip-rule:nonzero;display:inline;overflow:visible;visibility:visible;opacity:1;isolation:auto;mix-blend-mode:normal;color-interpolation:sRGB;color-interpolation-filters:linearRGB;solid-color:#000;solid-opacity:1;vector-effect:none;fill:#ff5a5f;fill-opacity:1;fill-rule:evenodd;stroke:none;stroke-width:1.17020801pt;stroke-linecap:butt;stroke-linejoin:miter;stroke-miterlimit:4;stroke-dasharray:none;stroke-dashoffset:0;stroke-opacity:1;color-rendering:auto;image-rendering:auto;shape-rendering:auto;text-rendering:auto;enable-background:accumulate" d="m119.38 139.63-26.13 6.95 10.18 2.57-2.57 10.19zm-4.88 2.91-10.65 11.34 1.48-5.86-.76-.19-5.1-1.29z" transform="translate(-55.14 -78.47) scale(1.52605)"/>
        <path style="color:#000;font-style:normal;font-variant:normal;font-weight:400;font-stretch:normal;font-size:medium;line-height:normal;font-family:sans-serif;font-variant-ligatures:normal;font-variant-position:normal;font-variant-caps:normal;font-variant-numeric:normal;font-variant-alternates:normal;font-feature-settings:normal;text-indent:0;text-align:start;text-decoration:none;text-decoration-line:none;text-decoration-style:solid;text-decoration-color:#000;letter-spacing:normal;word-spacing:normal;text-transform:none;writing-mode:lr-tb;direction:ltr;text-orientation:mixed;dominant-baseline:auto;baseline-shift:baseline;text-anchor:start;white-space:normal;shape-padding:0;clip-rule:nonzero;display:inline;overflow:visible;visibility:visible;opacity:1;isolation:auto;mix-blend-mode:normal;color-interpolation:sRGB;color-interpolation-filters:linearRGB;solid-color:#000;solid-opacity:1;vector-effect:none;fill:#087e8b;fill-opacity:1;fill-rule:nonzero;stroke:none;stroke-width:8.43683624;stroke-linecap:butt;stroke-linejoin:round;stroke-miterlimit:4;stroke-dasharray:none;stroke-dashoffset:0;stroke-opacity:1;filter:url(#b);color-rendering:auto;image-rendering:auto;shape-rendering:auto;text-rendering:auto;enable-background:accumulate" d="M183.58 31.58 32.87 71.65l52.97 13.37-50.71 30.27-16.43 9.8a4.22 4.22 0 0 0 4.32 7.25l16.37-9.77 50.76-30.3-13.36 52.95L183.6 31.58zm-42.94 20.73L96.76 78.5l-28.02-7.08 71.9-19.12zm4.3 7.26L94 113.77l7.08-28.02 43.86-26.18z" transform="translate(78.46 126.27) scale(.26458)"/>
        <circle style="opacity:1;fill:#c81d25;fill-opacity:1;fill-rule:nonzero;stroke:none;stroke-width:1.55999994;stroke-linecap:round;stroke-linejoin:round;stroke-miterlimit:4;stroke-dasharray:none;stroke-opacity:1;paint-order:markers stroke fill;filter:url(#c)" cx="72.79" cy="138.84" r="3.26" transform="translate(75.37 88.97) scale(.41937)"/>
        <path d="m105.53 147.46-2.3 9.13 16.6-17.67-23.43 6.23z" style="opacity:1;fill:#bfd7ea;fill-opacity:1;fill-rule:evenodd;stroke:none;stroke-width:1.77561569;stroke-miterlimit:4;stroke-dasharray:none;stroke-opacity:1"/>
    </g>
</svg>