<?xml version="1.0" standalone="no"?>
<!DOCTYPE svg PUBLIC "-//W3C//DTD SVG 20010904//EN"
 "http://www.w3.org/TR/2001/REC-SVG-20010904/DTD/svg10.dtd">
<svg version="1.0" xmlns="http://www.w3.org/2000/svg"
 width="848.000000pt" height="848.000000pt" viewBox="0 0 848.000000 848.000000"
 preserveAspectRatio="xMidYMid meet">
<metadata>
Created by potrace 1.14, written by Peter Selinger 2001-2017
</metadata>
<g transform="translate(0.000000,848.000000) scale(0.100000,-0.100000)"
fill="#000000" stroke="none">
<path d="M3558 7795 c-2 -2 -62 -6 -133 -10 -125 -5 -251 -13 -325 -20 -19 -1
-69 -6 -110 -9 -41 -4 -86 -9 -100 -11 -14 -2 -45 -6 -70 -9 -142 -19 -166
-23 -240 -40 -36 -7 -68 -12 -72 -9 -5 2 -8 -1 -8 -8 0 -7 -3 -10 -6 -7 -14
15 -167 -56 -214 -98 -83 -75 -166 -164 -248 -268 -31 -39 -60 -73 -63 -76 -4
-3 -52 -68 -108 -145 -55 -77 -105 -144 -109 -150 -43 -57 -102 -146 -102
-154 0 -6 -3 -11 -8 -11 -4 0 -43 -56 -87 -125 -44 -69 -101 -158 -128 -198
-26 -39 -54 -87 -62 -104 -9 -18 -19 -33 -24 -33 -5 0 -11 -10 -15 -23 -3 -12
-14 -32 -26 -44 -11 -12 -20 -26 -20 -30 0 -5 -15 -32 -34 -61 -19 -28 -32
-52 -28 -52 4 0 2 -4 -4 -8 -10 -7 -175 -289 -230 -392 -16 -30 -31 -57 -34
-60 -3 -3 -17 -27 -31 -55 -14 -27 -39 -75 -56 -105 -45 -81 -64 -119 -62
-126 0 -4 -3 -10 -8 -13 -14 -9 -253 -499 -257 -526 -1 -5 -4 -15 -8 -20 -4
-6 -20 -46 -38 -90 -17 -44 -35 -89 -40 -100 -11 -25 -44 -130 -41 -130 1 0
-3 -13 -9 -29 -31 -83 -32 -214 -1 -326 12 -41 23 -83 25 -92 6 -24 46 -136
61 -173 6 -16 18 -46 25 -65 7 -19 24 -59 37 -88 12 -29 23 -55 23 -58 0 -2
18 -43 40 -90 22 -47 40 -87 40 -89 0 -2 27 -60 60 -128 33 -69 60 -130 60
-135 0 -6 3 -12 8 -14 8 -4 42 -68 43 -83 0 -5 5 -15 10 -21 5 -6 35 -62 68
-125 32 -63 79 -154 105 -203 44 -83 51 -116 27 -116 -6 0 -35 -16 -65 -35
-30 -19 -59 -35 -63 -36 -4 0 -39 -21 -78 -47 -83 -56 -116 -109 -113 -184 1
-27 5 -48 10 -48 4 0 8 -6 8 -14 0 -7 7 -19 15 -26 8 -7 13 -16 10 -20 -3 -4
9 -13 25 -20 17 -7 30 -17 30 -22 0 -5 4 -7 9 -3 5 3 12 1 15 -4 3 -4 30 -7
60 -6 52 3 110 31 256 124 37 23 71 41 80 41 6 0 147 -234 159 -265 2 -5 7
-12 10 -15 7 -6 150 -240 166 -270 5 -11 13 -20 17 -20 5 0 8 -7 8 -15 0 -8 5
-15 10 -15 6 0 10 -5 10 -12 0 -6 11 -26 25 -44 14 -18 25 -37 25 -43 0 -6 4
-11 10 -11 5 0 17 -16 26 -35 9 -19 20 -35 25 -35 5 0 9 -6 9 -13 0 -7 9 -23
20 -35 11 -12 20 -25 20 -29 1 -4 14 -24 30 -43 17 -19 30 -38 30 -42 0 -4 7
-16 16 -25 15 -17 47 -59 89 -117 11 -15 27 -36 35 -46 105 -128 134 -160 143
-160 6 0 8 -3 5 -6 -6 -5 13 -26 83 -89 59 -53 197 -112 309 -132 14 -2 58
-11 99 -19 40 -8 87 -17 105 -19 17 -2 47 -6 66 -9 97 -14 128 -19 160 -21 19
-2 58 -6 85 -9 59 -7 133 -14 230 -21 39 -2 70 -5 70 -5 0 -1 29 -3 65 -5 36
-3 103 -7 150 -10 393 -26 1381 -26 1690 0 25 2 86 6 135 10 50 3 106 8 125
10 19 2 58 6 85 9 28 3 66 8 85 10 19 3 55 8 80 11 25 3 56 7 70 10 310 60
338 74 504 242 39 40 81 85 93 100 12 15 35 44 52 63 35 41 36 42 76 95 16 22
33 42 37 43 4 2 8 8 8 13 0 8 17 31 45 63 6 6 37 49 70 96 32 47 61 87 65 90
3 3 10 12 15 22 21 34 129 193 135 198 4 3 10 12 14 20 10 21 23 42 100 160
100 152 196 309 196 319 0 5 4 11 8 13 11 5 322 538 322 553 0 3 5 11 11 18 6
7 20 31 32 55 12 23 49 95 82 160 33 64 63 119 66 122 5 5 65 125 152 310 50
105 136 308 142 335 2 6 12 33 23 60 11 28 20 53 21 58 0 4 7 31 16 60 39 136
35 233 -16 390 -11 34 -22 71 -25 82 -2 11 -8 29 -13 40 -5 11 -19 47 -31 80
-12 33 -28 74 -35 90 -8 17 -23 55 -35 85 -12 30 -35 84 -52 120 -17 36 -31
70 -32 76 -1 7 -7 18 -12 25 -6 8 -20 37 -32 65 -37 88 -264 539 -276 546 -6
4 -7 8 -2 8 5 0 4 6 -2 13 -5 6 -29 48 -52 92 -23 44 -53 99 -66 123 -13 23
-35 62 -49 87 l-26 45 63 67 c35 36 91 96 125 132 34 36 102 109 152 161 82
86 110 123 80 104 -6 -3 -43 -15 -83 -26 -39 -11 -87 -24 -106 -29 -19 -5 -44
-12 -55 -14 -93 -21 -122 -29 -132 -38 -7 -5 -13 -7 -13 -5 0 3 -45 -7 -100
-22 -113 -31 -112 -31 -157 60 -18 38 -217 352 -316 500 -194 290 -333 470
-464 598 -103 100 -164 129 -378 177 -59 13 -225 41 -295 49 -25 4 -61 8 -80
10 -156 20 -160 20 -295 30 -38 2 -99 7 -135 10 -36 3 -110 8 -165 12 -55 3
-136 8 -180 11 -91 5 -1242 13 -1247 8z"/>
</g>
</svg>
